<?xml version="1.0" encoding="UTF-8"?>
<!DOCTYPE svg PUBLIC "-//W3C//DTD SVG 1.1//EN" "http://www.w3.org/Graphics/SVG/1.1/DTD/svg11.dtd">
<!-- Creator: CorelDRAW 2020 (64-Bit) -->
<svg xmlns="http://www.w3.org/2000/svg" xml:space="preserve" width="23.8166mm" height="30.6584mm" version="1.1" style="shape-rendering:geometricPrecision; text-rendering:geometricPrecision; image-rendering:optimizeQuality; fill-rule:evenodd; clip-rule:evenodd"
viewBox="0 0 343.9 442.69"
 xmlns:xlink="http://www.w3.org/1999/xlink"
 xmlns:xodm="http://www.corel.com/coreldraw/odm/2003">
 <defs>
  <style type="text/css">
   <![CDATA[
    .fil0 {fill:none}
    .fil4 {fill:url(#id0)}
    .fil7 {fill:url(#id1)}
    .fil3 {fill:url(#id2)}
    .fil5 {fill:url(#id3)}
    .fil1 {fill:url(#id4)}
    .fil2 {fill:url(#id5)}
    .fil6 {fill:url(#id6)}
   ]]>
  </style>
  <linearGradient id="id0" gradientUnits="userSpaceOnUse" x1="72.68" y1="396.12" x2="272.06" y2="181.78">
   <stop offset="0" style="stop-opacity:1; stop-color:#2480D0"/>
   <stop offset="1" style="stop-opacity:1; stop-color:#06D4ED"/>
  </linearGradient>
  <linearGradient id="id1" gradientUnits="userSpaceOnUse" xlink:href="#id0" x1="75.32" y1="398.58" x2="269.42" y2="179.32">
  </linearGradient>
  <linearGradient id="id2" gradientUnits="userSpaceOnUse" x1="70.19" y1="26.01" x2="67.03" y2="325.72">
   <stop offset="0" style="stop-opacity:1; stop-color:#00AFEF"/>
   <stop offset="1" style="stop-opacity:1; stop-color:#0C3E89"/>
  </linearGradient>
  <linearGradient id="id3" gradientUnits="userSpaceOnUse" xlink:href="#id0" x1="72.68" y1="396.12" x2="272.06" y2="181.78">
  </linearGradient>
  <linearGradient id="id4" gradientUnits="userSpaceOnUse" xlink:href="#id2" x1="70.18" y1="26.02" x2="67.03" y2="325.71">
  </linearGradient>
  <linearGradient id="id5" gradientUnits="userSpaceOnUse" xlink:href="#id2" x1="149.27" y1="102.32" x2="-8.89" y2="266.24">
  </linearGradient>
  <linearGradient id="id6" gradientUnits="userSpaceOnUse" xlink:href="#id0" x1="66.86" y1="390.71" x2="277.88" y2="187.19">
  </linearGradient>
 </defs>
 <g id="Capa_x0020_1">
  <metadata id="CorelCorpID_0Corel-Layer"/>
  <g id="_2489141984992">
   <polyline class="fil0" points="287.83,316.45 318.67,317.07 318.67,176.26 "/>
   <polyline class="fil0" points="316.18,176.26 285.65,209.59 287.83,316.45 "/>
   <polygon class="fil1" points="0.04,60.7 0.03,261.69 30.57,230.38 30.57,84.11 66.09,59.81 65.47,207.48 0.04,276.65 0.08,396.59 30.88,363.98 30.88,292.85 99.74,218.7 99.74,0 "/>
   <polygon class="fil2" points="69.17,442.68 241.73,442.37 209.32,412.47 100.54,412.47 100.54,379.15 184.4,379.18 253.58,442.68 343.9,442.68 342.49,346.22 212,346.17 245.77,379.07 307.77,379.07 309.02,411.47 266.65,411.47 199.12,346.12 111.5,346.05 68.51,391.53 "/>
   <polygon class="fil3" points="67.96,267.2 68.58,324.08 101.21,289.54 101.21,232.93 "/>
   <polygon class="fil4" points="-0,396.67 0.05,442.69 173.26,257.95 199.43,282.88 315.94,155.77 339,173.84 340.87,97.82 271.39,117.45 292.89,135.83 201.92,234.9 176.37,209.98 "/>
   <polygon class="fil5" points="175.68,277.35 203.91,301.09 208.24,295.8 208.4,319.22 175.68,319.38 "/>
   <polygon class="fil6" points="262.78,319.23 230.82,319.23 230.82,269.83 262.78,237.32 "/>
   <polygon class="fil7" points="287.38,208.49 287.82,319.24 318.67,319.24 318.67,176.26 "/>
  </g>
 </g>
</svg>
